<?xml version="1.0" encoding="utf-8"?>
<!-- Generator: Adobe Illustrator 18.1.1, SVG Export Plug-In . SVG Version: 6.00 Build 0)  -->
<!DOCTYPE svg PUBLIC "-//W3C//DTD SVG 1.1//EN" "http://www.w3.org/Graphics/SVG/1.1/DTD/svg11.dtd">
<svg version="1.1" id="Layer_1" xmlns="http://www.w3.org/2000/svg" xmlns:xlink="http://www.w3.org/1999/xlink" x="0px" y="0px"
	 viewBox="0 0 227.6 138" enable-background="new 0 0 227.6 138" xml:space="preserve">
<g>
	<rect x="10.2" y="21.4" fill="#A33338" width="103.7" height="103.7"/>
	<g>
		<path fill="none" stroke="#231F20" stroke-width="6" stroke-linecap="round" stroke-linejoin="round" stroke-miterlimit="10" d="
			M21.1,66.9c7-2.6,19.6-12.8,34.7-35.8"/>
		<path fill="none" stroke="#231F20" stroke-width="6" stroke-linecap="round" stroke-linejoin="round" stroke-miterlimit="10" d="
			M55.9,31.1c7.4,13.5,29.6,28.6,43.6,30.4"/>
		
			<line fill="none" stroke="#231F20" stroke-width="6" stroke-linecap="round" stroke-linejoin="round" stroke-miterlimit="10" x1="41.2" y1="113.5" x2="44.6" y2="60.2"/>
		
			<line fill="none" stroke="#231F20" stroke-width="6" stroke-linecap="round" stroke-linejoin="round" stroke-miterlimit="10" x1="44.6" y1="60.2" x2="75.5" y2="60.2"/>
		
			<line fill="none" stroke="#231F20" stroke-width="6" stroke-linecap="round" stroke-linejoin="round" stroke-miterlimit="10" x1="70.6" y1="79" x2="46.1" y2="80"/>
		
			<line fill="none" stroke="#231F20" stroke-width="6" stroke-linecap="round" stroke-linejoin="round" stroke-miterlimit="10" x1="73.9" y1="68.7" x2="46.1" y2="70"/>
		
			<line fill="none" stroke="#231F20" stroke-width="6" stroke-linecap="round" stroke-linejoin="round" stroke-miterlimit="10" x1="58.3" y1="60.2" x2="58.3" y2="49"/>
		<path fill="none" stroke="#231F20" stroke-width="6" stroke-linecap="round" stroke-linejoin="round" stroke-miterlimit="10" d="
			M79.6,82c-6.7,10-13.5,13.1-13.5,13.1"/>
		<path fill="none" stroke="#231F20" stroke-width="6" stroke-linecap="round" stroke-linejoin="round" stroke-miterlimit="10" d="
			M55.9,99.9c-5.3,8.2-14.6,13.6-14.6,13.6"/>
		<path fill="none" stroke="#231F20" stroke-width="6" stroke-linecap="round" stroke-linejoin="round" stroke-miterlimit="10" d="
			M70.6,79c4.9-7,4.6-10.3,4.9-18.8"/>
		<path fill="none" stroke="#231F20" stroke-width="6" stroke-linecap="round" stroke-linejoin="round" stroke-miterlimit="10" d="
			M56.6,87.8c7.7,7.8,26.8,23.3,39.9,25.9"/>
	</g>
	<rect x="119.6" y="33.5" fill="none" width="108" height="117.1"/>
	<text transform="matrix(1 0 0 1 119.5814 56.9635)"><tspan x="0" y="0" fill="#231F20" font-family="'Comfortaa-Regular'" font-size="30">1000 </tspan><tspan x="0" y="28" fill="#231F20" font-family="'Comfortaa-Regular'" font-size="30">Sushi </tspan><tspan x="0" y="56" fill="#231F20" font-family="'Comfortaa-Regular'" font-size="30">Islands</tspan></text>
</g>
</svg>
